<svg width="450" height="80" viewBox="0 0 450 80" fill="none" xmlns="http://www.w3.org/2000/svg">
<path d="M87.18 71H93.18C96.68 71 98.62 69.48 98.62 66.74C98.62 64.12 96.86 62.7 93.52 62.7H89.16V58.7H97.74V57H87.18V71ZM89.16 69.42V64.28H93.1C95.44 64.28 96.62 65.1 96.62 66.82C96.62 68.52 95.4 69.42 93.1 69.42H89.16ZM107.109 60.3C105.549 60.3 104.189 60.9 103.329 62.08V60.4H101.489V74.88H103.409V69.4C104.289 70.54 105.609 71.12 107.109 71.12C110.209 71.12 112.469 68.96 112.469 65.7C112.469 62.46 110.209 60.3 107.109 60.3ZM106.949 69.44C104.929 69.44 103.389 67.96 103.389 65.7C103.389 63.46 104.929 61.98 106.949 61.98C108.989 61.98 110.529 63.46 110.529 65.7C110.529 67.96 108.989 69.44 106.949 69.44ZM119.798 71.12C122.978 71.12 125.298 68.86 125.298 65.7C125.298 62.54 122.978 60.3 119.798 60.3C116.618 60.3 114.278 62.54 114.278 65.7C114.278 68.86 116.618 71.12 119.798 71.12ZM119.798 69.44C117.758 69.44 116.218 67.96 116.218 65.7C116.218 63.44 117.758 61.98 119.798 61.98C121.838 61.98 123.358 63.44 123.358 65.7C123.358 67.96 121.838 69.44 119.798 69.44ZM128.071 71H129.991V66.56H136.031V71H137.951V60.4H136.031V64.9H129.991V60.4H128.071V71ZM151.064 60.3C148.284 60.3 146.164 62.08 145.764 64.74H143.604V60.4H141.684V71H143.604V66.52H145.744C146.104 69.24 148.244 71.12 151.064 71.12C154.164 71.12 156.444 68.86 156.444 65.7C156.444 62.52 154.164 60.3 151.064 60.3ZM151.064 69.44C149.084 69.44 147.584 67.98 147.584 65.7C147.584 63.44 149.084 61.98 151.064 61.98C153.024 61.98 154.544 63.44 154.544 65.7C154.544 67.98 153.024 69.44 151.064 69.44ZM166.424 65.5C167.484 65.08 168.124 64.26 168.124 63.12C168.124 61.38 166.624 60.4 164.124 60.4H159.204V71H164.304C167.124 71 168.484 69.92 168.484 68.08C168.484 66.74 167.824 65.86 166.424 65.5ZM161.084 61.88H163.964C165.424 61.88 166.204 62.38 166.204 63.4C166.204 64.42 165.424 64.96 163.964 64.96H161.084V61.88ZM164.164 69.52H161.084V66.34H164.284C165.864 66.34 166.564 66.86 166.564 67.96C166.564 69.04 165.744 69.52 164.164 69.52ZM175.269 60.3C173.569 60.3 171.989 60.78 170.889 61.66L171.689 63.1C172.509 62.4 173.789 61.96 175.049 61.96C176.949 61.96 177.889 62.9 177.889 64.52V64.9H174.849C171.689 64.9 170.589 66.3 170.589 68C170.589 69.84 172.109 71.12 174.509 71.12C176.169 71.12 177.349 70.56 177.989 69.6V71H179.809V64.6C179.809 61.7 178.169 60.3 175.269 60.3ZM174.829 69.64C173.369 69.64 172.489 68.98 172.489 67.92C172.489 67.02 173.029 66.28 174.929 66.28H177.889V67.76C177.409 68.98 176.269 69.64 174.829 69.64ZM183.266 71H185.186V66.56H191.226V71H193.146V60.4H191.226V64.9H185.186V60.4H183.266V71ZM196.88 71H198.8V66.56H204.84V71H206.76V60.4H204.84V64.9H198.8V60.4H196.88V71ZM214.353 60.4C211.513 60.4 209.693 61.66 209.693 64.12C209.693 65.8 210.593 66.9 212.173 67.38L209.593 71H211.653L213.973 67.64H214.193H217.273V71H218.993V60.4H214.353ZM211.653 64.18C211.653 62.7 212.653 62.08 214.413 62.08H217.273V66.26H214.333C212.553 66.26 211.653 65.6 211.653 64.18ZM232.73 71.12C234.63 71.12 236.21 70.32 237.05 68.84L235.59 67.92C234.91 68.96 233.87 69.44 232.71 69.44C230.63 69.44 229.07 68 229.07 65.7C229.07 63.44 230.63 61.98 232.71 61.98C233.87 61.98 234.91 62.46 235.59 63.5L237.05 62.56C236.21 61.08 234.63 60.3 232.73 60.3C229.47 60.3 227.13 62.54 227.13 65.7C227.13 68.86 229.47 71.12 232.73 71.12ZM243.316 60.3C241.616 60.3 240.036 60.78 238.936 61.66L239.736 63.1C240.556 62.4 241.836 61.96 243.096 61.96C244.996 61.96 245.936 62.9 245.936 64.52V64.9H242.896C239.736 64.9 238.636 66.3 238.636 68C238.636 69.84 240.156 71.12 242.556 71.12C244.216 71.12 245.396 70.56 246.036 69.6V71H247.856V64.6C247.856 61.7 246.216 60.3 243.316 60.3ZM242.876 69.64C241.416 69.64 240.536 68.98 240.536 67.92C240.536 67.02 241.076 66.28 242.976 66.28H245.936V67.76C245.456 68.98 244.316 69.64 242.876 69.64ZM251.313 71H253.233V66.56H259.273V71H261.193V60.4H259.273V64.9H253.233V60.4H251.313V71ZM268.706 60.3C267.006 60.3 265.426 60.78 264.326 61.66L265.126 63.1C265.946 62.4 267.226 61.96 268.486 61.96C270.386 61.96 271.326 62.9 271.326 64.52V64.9H268.286C265.126 64.9 264.026 66.3 264.026 68C264.026 69.84 265.546 71.12 267.946 71.12C269.606 71.12 270.786 70.56 271.426 69.6V71H273.246V64.6C273.246 61.7 271.606 60.3 268.706 60.3ZM268.266 69.64C266.806 69.64 265.926 68.98 265.926 67.92C265.926 67.02 266.466 66.28 268.366 66.28H271.326V67.76C270.846 68.98 269.706 69.64 268.266 69.64ZM284.604 60.4H274.924V62.08H278.804V71H280.724V62.08H284.604V60.4ZM290.638 71.12C293.818 71.12 296.138 68.86 296.138 65.7C296.138 62.54 293.818 60.3 290.638 60.3C287.458 60.3 285.118 62.54 285.118 65.7C285.118 68.86 287.458 71.12 290.638 71.12ZM290.638 69.44C288.598 69.44 287.058 67.96 287.058 65.7C287.058 63.44 288.598 61.98 290.638 61.98C292.678 61.98 294.198 63.44 294.198 65.7C294.198 67.96 292.678 69.44 290.638 69.44ZM304.531 60.3C302.971 60.3 301.611 60.9 300.751 62.08V60.4H298.911V74.88H300.831V69.4C301.711 70.54 303.031 71.12 304.531 71.12C307.631 71.12 309.891 68.96 309.891 65.7C309.891 62.46 307.631 60.3 304.531 60.3ZM304.371 69.44C302.351 69.44 300.811 67.96 300.811 65.7C300.811 63.46 302.351 61.98 304.371 61.98C306.411 61.98 307.951 63.46 307.951 65.7C307.951 67.96 306.411 69.44 304.371 69.44ZM313.64 58.36C314.4 58.36 314.94 57.8 314.94 57.08C314.94 56.4 314.38 55.86 313.64 55.86C312.9 55.86 312.34 56.42 312.34 57.12C312.34 57.82 312.9 58.36 313.64 58.36ZM312.68 71H314.6V60.4H312.68V71ZM317.844 58.5C318.404 58.5 318.824 58.08 318.824 57.5C318.824 56.9 318.404 56.48 317.844 56.48C317.264 56.48 316.844 56.92 316.844 57.5C316.844 58.06 317.264 58.5 317.844 58.5ZM320.684 58.5C321.264 58.5 321.684 58.08 321.684 57.5C321.684 56.9 321.264 56.48 320.684 56.48C320.124 56.48 319.704 56.92 319.704 57.5C319.704 58.06 320.124 58.5 320.684 58.5ZM318.304 71H320.224V60.4H318.304V71ZM331.15 65.5C332.21 65.08 332.85 64.26 332.85 63.12C332.85 61.38 331.35 60.4 328.85 60.4H323.93V71H329.03C331.85 71 333.21 69.92 333.21 68.08C333.21 66.74 332.55 65.86 331.15 65.5ZM325.81 61.88H328.69C330.15 61.88 330.93 62.38 330.93 63.4C330.93 64.42 330.15 64.96 328.69 64.96H325.81V61.88ZM328.89 69.52H325.81V66.34H329.01C330.59 66.34 331.29 66.86 331.29 67.96C331.29 69.04 330.47 69.52 328.89 69.52ZM349.487 60.4H339.807V62.08H343.687V71H345.607V62.08H349.487V60.4ZM355.23 60.3C353.53 60.3 351.95 60.78 350.85 61.66L351.65 63.1C352.47 62.4 353.75 61.96 355.01 61.96C356.91 61.96 357.85 62.9 357.85 64.52V64.9H354.81C351.65 64.9 350.55 66.3 350.55 68C350.55 69.84 352.07 71.12 354.47 71.12C356.13 71.12 357.31 70.56 357.95 69.6V71H359.77V64.6C359.77 61.7 358.13 60.3 355.23 60.3ZM354.79 69.64C353.33 69.64 352.45 68.98 352.45 67.92C352.45 67.02 352.99 66.28 354.89 66.28H357.85V67.76C357.37 68.98 356.23 69.64 354.79 69.64ZM376.398 60.4H368.598V71H370.518V62.08H376.398V60.4ZM382.435 71.12C385.615 71.12 387.935 68.86 387.935 65.7C387.935 62.54 385.615 60.3 382.435 60.3C379.255 60.3 376.915 62.54 376.915 65.7C376.915 68.86 379.255 71.12 382.435 71.12ZM382.435 69.44C380.395 69.44 378.855 67.96 378.855 65.7C378.855 63.44 380.395 61.98 382.435 61.98C384.475 61.98 385.995 63.44 385.995 65.7C385.995 67.96 384.475 69.44 382.435 69.44ZM398.217 60.4H388.537V62.08H392.417V71H394.337V62.08H398.217V60.4ZM409.292 65.76C409.292 62.5 407.112 60.3 404.052 60.3C400.992 60.3 398.732 62.56 398.732 65.7C398.732 68.86 401.012 71.12 404.432 71.12C406.192 71.12 407.652 70.52 408.612 69.4L407.552 68.16C406.772 69.02 405.732 69.44 404.492 69.44C402.392 69.44 400.892 68.2 400.652 66.34H409.252C409.272 66.16 409.292 65.92 409.292 65.76ZM404.052 61.92C405.912 61.92 407.252 63.18 407.452 64.96H400.652C400.852 63.16 402.212 61.92 404.052 61.92ZM413.054 60.4L412.874 64.32C412.734 66.82 412.654 69.42 410.934 69.42C410.794 69.42 410.634 69.4 410.454 69.36L410.334 70.98C410.774 71.1 411.154 71.16 411.514 71.16C413.914 71.16 414.414 68.18 414.594 64.44L414.714 62.08H419.274V71H421.194V60.4H413.054ZM434.487 65.76C434.487 62.5 432.307 60.3 429.247 60.3C426.187 60.3 423.927 62.56 423.927 65.7C423.927 68.86 426.207 71.12 429.627 71.12C431.387 71.12 432.847 70.52 433.807 69.4L432.747 68.16C431.967 69.02 430.927 69.44 429.687 69.44C427.587 69.44 426.087 68.2 425.847 66.34H434.447C434.467 66.16 434.487 65.92 434.487 65.76ZM429.247 61.92C431.107 61.92 432.447 63.18 432.647 64.96H425.847C426.047 63.16 427.407 61.92 429.247 61.92ZM442.425 59.02C444.365 59.02 445.545 58.06 445.585 56.26H444.245C444.225 57.26 443.505 57.9 442.405 57.9C441.325 57.9 440.605 57.26 440.585 56.26H439.285C439.305 58.06 440.485 59.02 442.425 59.02ZM437.465 71H439.225L445.705 63.28V71H447.625V60.4H445.885L439.385 68.12V60.4H437.465V71Z" fill="#BD7F5C"/>
<path d="M103.404 13.572L96.222 30.204L89.25 13.572H83.79L93.408 36H98.826L108.444 13.572H103.404ZM118.368 36.294C124.668 36.294 128.532 33.564 128.532 29.364C128.532 20.586 114.672 24.618 114.672 20.082C114.672 18.612 116.184 17.562 119.376 17.562C121.518 17.562 123.66 17.982 125.802 19.242L127.818 15.252C125.802 14.034 122.4 13.32 119.418 13.32C113.37 13.32 109.548 16.092 109.548 20.334C109.548 29.28 123.408 25.248 123.408 29.532C123.408 31.086 122.022 32.01 118.704 32.01C115.89 32.01 112.866 31.086 110.892 29.784L108.876 33.774C110.892 35.202 114.63 36.294 118.368 36.294ZM154.137 24.912C154.137 17.898 149.349 13.32 142.797 13.32C136.119 13.32 131.205 18.108 131.205 24.786C131.205 31.464 136.077 36.294 143.595 36.294C147.459 36.294 150.609 35.034 152.625 32.64L149.811 29.406C148.215 31.044 146.241 31.842 143.721 31.842C139.815 31.842 137.085 29.742 136.455 26.466H154.053C154.095 25.962 154.137 25.332 154.137 24.912ZM142.797 17.52C146.241 17.52 148.719 19.746 149.139 22.98H136.413C136.917 19.704 139.395 17.52 142.797 17.52ZM166.11 36.294C172.41 36.294 176.274 33.564 176.274 29.364C176.274 20.586 162.414 24.618 162.414 20.082C162.414 18.612 163.926 17.562 167.118 17.562C169.26 17.562 171.402 17.982 173.544 19.242L175.56 15.252C173.544 14.034 170.142 13.32 167.16 13.32C161.112 13.32 157.29 16.092 157.29 20.334C157.29 29.28 171.15 25.248 171.15 29.532C171.15 31.086 169.764 32.01 166.446 32.01C163.632 32.01 160.608 31.086 158.634 29.784L156.618 33.774C158.634 35.202 162.372 36.294 166.11 36.294ZM189.364 13.32C185.752 13.32 182.266 14.244 179.872 16.092L181.93 19.914C183.61 18.528 186.214 17.688 188.734 17.688C192.472 17.688 194.32 19.494 194.32 22.56V22.896H188.524C181.72 22.896 179.2 25.836 179.2 29.574C179.2 33.48 182.434 36.294 187.558 36.294C190.918 36.294 193.354 35.202 194.614 33.27V36H199.57V22.854C199.57 16.386 195.832 13.32 189.364 13.32ZM188.65 32.472C185.962 32.472 184.366 31.254 184.366 29.364C184.366 27.726 185.332 26.382 188.902 26.382H194.32V28.986C193.438 31.296 191.212 32.472 188.65 32.472ZM219.033 13.32C215.757 13.32 213.027 14.412 211.305 16.47V13.572H206.307V36H211.557V24.66C211.557 20.166 214.077 17.898 217.815 17.898C221.175 17.898 223.149 19.83 223.149 23.82V36H228.399V23.148C228.399 16.386 224.409 13.32 219.033 13.32ZM243.627 13.32C240.015 13.32 236.529 14.244 234.135 16.092L236.193 19.914C237.873 18.528 240.477 17.688 242.997 17.688C246.735 17.688 248.583 19.494 248.583 22.56V22.896H242.787C235.983 22.896 233.463 25.836 233.463 29.574C233.463 33.48 236.697 36.294 241.821 36.294C245.181 36.294 247.617 35.202 248.877 33.27V36H253.833V22.854C253.833 16.386 250.095 13.32 243.627 13.32ZM242.913 32.472C240.225 32.472 238.629 31.254 238.629 29.364C238.629 27.726 239.595 26.382 243.165 26.382H248.583V28.986C247.701 31.296 245.475 32.472 242.913 32.472ZM272.583 31.044C271.785 31.674 270.735 31.968 269.643 31.968C267.627 31.968 266.535 30.792 266.535 28.608V17.94H272.541V13.74H266.535V8.616H261.285V13.74H257.589V17.94H261.285V28.734C261.285 33.69 264.099 36.294 269.013 36.294C270.903 36.294 272.793 35.79 274.053 34.782L272.583 31.044ZM287.713 36.294C294.685 36.294 299.683 31.506 299.683 24.786C299.683 18.066 294.685 13.32 287.713 13.32C280.825 13.32 275.785 18.066 275.785 24.786C275.785 31.506 280.825 36.294 287.713 36.294ZM287.713 31.8C283.933 31.8 281.077 29.07 281.077 24.786C281.077 20.502 283.933 17.772 287.713 17.772C291.535 17.772 294.391 20.502 294.391 24.786C294.391 29.07 291.535 31.8 287.713 31.8ZM309.702 16.848V13.572H304.704V36H309.954V25.122C309.954 20.544 312.474 18.192 316.464 18.192C316.842 18.192 317.22 18.234 317.682 18.318V13.32C313.944 13.32 311.214 14.496 309.702 16.848ZM324.781 9.876C326.755 9.876 328.141 8.448 328.141 6.6C328.141 4.878 326.713 3.576 324.781 3.576C322.849 3.576 321.421 4.962 321.421 6.726C321.421 8.49 322.849 9.876 324.781 9.876ZM322.135 36H327.385V13.572H322.135V36ZM336.922 9.876C338.896 9.876 340.282 8.448 340.282 6.6C340.282 4.878 338.854 3.576 336.922 3.576C334.99 3.576 333.562 4.962 333.562 6.726C333.562 8.49 334.99 9.876 336.922 9.876ZM334.276 36H339.526V13.572H334.276V36ZM368.314 36.294C372.682 36.294 376.168 34.404 377.89 31.044L373.858 28.692C372.514 30.834 370.498 31.8 368.272 31.8C364.408 31.8 361.468 29.154 361.468 24.786C361.468 20.46 364.408 17.772 368.272 17.772C370.498 17.772 372.514 18.738 373.858 20.88L377.89 18.528C376.168 15.126 372.682 13.32 368.314 13.32C361.216 13.32 356.176 18.066 356.176 24.786C356.176 31.506 361.216 36.294 368.314 36.294ZM392.18 36.294C399.152 36.294 404.15 31.506 404.15 24.786C404.15 18.066 399.152 13.32 392.18 13.32C385.292 13.32 380.252 18.066 380.252 24.786C380.252 31.506 385.292 36.294 392.18 36.294ZM392.18 31.8C388.4 31.8 385.544 29.07 385.544 24.786C385.544 20.502 388.4 17.772 392.18 17.772C396.002 17.772 398.858 20.502 398.858 24.786C398.858 29.07 396.002 31.8 392.18 31.8ZM437.479 13.32C433.909 13.32 430.885 14.748 429.079 17.058C427.525 14.538 424.795 13.32 421.519 13.32C418.453 13.32 415.849 14.412 414.169 16.428V13.572H409.171V36H414.421V24.618C414.421 20.166 416.773 17.898 420.259 17.898C423.451 17.898 425.299 19.83 425.299 23.82V36H430.549V24.618C430.549 20.166 432.943 17.898 436.387 17.898C439.579 17.898 441.427 19.83 441.427 23.82V36H446.677V23.148C446.677 16.386 442.897 13.32 437.479 13.32Z" fill="#A97456"/>
<path d="M28.1112 55.8891C31.543 55.1756 33.5476 51.8798 33.5476 51.8798L34.0748 72.0285C34.0748 72.0285 32.1241 71.8548 30.5576 70.9752C29.4422 70.3489 28.3047 69.0399 27.3297 68.291C24.9852 66.4901 21.3157 65.3689 20.1604 64.8932C19.0051 64.4175 16.253 62.0391 16.253 62.0391C16.253 62.0391 12.6174 58.7772 11.8359 55.1756C11.0544 51.574 11.0884 48.9237 11.3602 47.9384C11.632 46.953 13.3989 41.5166 14.9618 36.6578C16.5248 31.799 15.6754 30.6778 15.6754 30.6778C15.6754 30.6778 14.8939 26.6344 10.9525 24.324C7.01109 22.0135 2.69594 20.9602 2.69594 20.9602C2.69594 20.9602 1.77853 19.3293 2.05035 17.7323C2.32217 16.1354 3.57934 15.6937 3.57934 15.6937C3.57934 15.6937 11.632 16.713 16.4229 20.9602C21.2137 25.2074 21.1797 31.2554 21.2137 31.6291C21.2477 32.0029 21.6868 32.8184 24.5095 32.9203C27.3323 33.0222 27.9752 31.6291 27.9752 31.6291L24.7134 38.6965C24.7134 38.6965 24.1018 38.0509 23.2863 37.881C22.4709 37.7111 21.2817 37.949 21.2817 37.949C21.2817 37.949 18.4955 38.6965 18.3936 45.6959C18.2916 52.6953 21.3157 53.8505 21.3157 53.8505C21.3157 53.8505 24.6795 56.6027 28.1112 55.8891Z" fill="url(#paint0_linear)"/>
<path d="M64.9944 59.5247C65.3682 61.2236 65.4701 62.6167 65.2663 64.2476C65.0624 65.8785 64.077 67.9512 62.9558 69.5821C61.8345 71.213 59.1163 72.0285 59.1163 72.0285H46.001V9.37384H54.9711C54.9711 9.37384 55.6149 9.5141 56.0244 10.3252C56.322 10.9149 56.4321 11.4125 56.4321 12.5338C56.4321 13.655 54.5293 15.3879 54.5293 15.3879C54.5293 15.3879 53.1363 16.747 52.6606 17.6983C52.1849 18.6497 52.8984 19.4652 52.8984 19.4652C52.8984 19.4652 53.6216 20.0838 55.107 21.198C56.581 22.3038 58.5421 23.5624 59.4221 24.324C61.189 25.853 64.111 28.877 64.8925 30.2701C65.674 31.6631 67.5169 34.7923 68.2563 37.0656C68.7452 38.5687 68.8332 40.0711 68.698 40.4633C68.3582 41.4487 67.6447 42.1962 67.2709 42.434C66.8972 42.6719 64.6207 43.6912 62.9558 44.7445C61.2909 45.7978 60.0677 48.1423 60.0677 48.1423C60.0677 48.1423 59.1163 50.6226 60.0677 52.3895C61.0191 54.1563 62.5141 55.0737 63.1597 55.7532C63.8052 56.4328 64.6207 57.8259 64.9944 59.5247Z" fill="#A97456"/>
<path d="M28.1872 59.5247C27.8134 61.2236 27.7115 62.6167 27.9154 64.2476C28.1192 65.8785 29.1046 67.9512 30.2259 69.5821C31.3471 71.213 34.0653 72.0285 34.0653 72.0285H47.1807V9.37384H38.2106C38.2106 9.37384 37.5667 9.5141 37.1573 10.3252C36.8596 10.9149 36.7495 11.4125 36.7495 12.5338C36.7495 13.655 38.6523 15.3879 38.6523 15.3879C38.6523 15.3879 40.0454 16.747 40.5211 17.6983C40.9967 18.6497 40.2832 19.4652 40.2832 19.4652C40.2832 19.4652 39.56 20.0838 38.0747 21.198C36.6006 22.3038 34.6396 23.5624 33.7595 24.324C31.9927 25.853 29.0706 28.877 28.2891 30.2701C27.5076 31.6631 25.6647 34.7923 24.9254 37.0656C24.4364 38.5687 24.3484 40.0711 24.4836 40.4633C24.8234 41.4487 25.5369 42.1962 25.9107 42.434C26.2845 42.6719 28.561 43.6912 30.2259 44.7445C31.8908 45.7978 33.1139 48.1423 33.1139 48.1423C33.1139 48.1423 34.0653 50.6226 33.1139 52.3895C32.1626 54.1563 30.6676 55.0737 30.022 55.7532C29.3764 56.4328 28.561 57.8259 28.1872 59.5247Z" fill="#A97456"/>
<rect x="36" y="9.00031" width="21" height="6" rx="3" fill="url(#paint1_linear)"/>
<rect x="28.7734" y="69.684" width="36.8317" height="4.41708" rx="2.20854" fill="url(#paint2_linear)"/>
<rect x="41.5498" y="78.9938" width="0.0679552" height="0.0679552" fill="#C4C4C4"/>
<path d="M46.6593 35.572L40.4956 46.0817C39.2004 48.3036 39.1003 51.1288 40.4956 53.5079C42.5931 57.0843 47.2588 58.3211 50.9168 56.2704C54.5748 54.2197 55.8399 49.6581 53.7424 46.0817L47.5786 35.572C47.375 35.2249 46.8629 35.2249 46.6593 35.572Z" fill="url(#paint3_linear)"/>
<path d="M348.473 35.1661L344.629 41.8696C343.822 43.2868 343.759 45.0888 344.629 46.6063C345.937 48.8875 348.847 49.6764 351.128 48.3683C353.409 47.0603 354.198 44.1508 352.89 41.8696L349.046 35.1661C348.919 34.9446 348.6 34.9446 348.473 35.1661Z" fill="#A97456"/>
<defs>
<linearGradient id="paint0_linear" x1="2.29339" y1="18.398" x2="48.0849" y2="63.3336" gradientUnits="userSpaceOnUse">
<stop stop-color="#CF9D80"/>
<stop offset="1" stop-color="#CF9D80" stop-opacity="0.8"/>
</linearGradient>
<linearGradient id="paint1_linear" x1="36.1921" y1="9.28833" x2="37.7661" y2="18.7833" gradientUnits="userSpaceOnUse">
<stop stop-color="#CF9D80"/>
<stop offset="1" stop-color="#CF9D80" stop-opacity="0.8"/>
</linearGradient>
<linearGradient id="paint2_linear" x1="29.1103" y1="69.8961" x2="29.6077" y2="77.0435" gradientUnits="userSpaceOnUse">
<stop stop-color="#CF9D80"/>
<stop offset="1" stop-color="#CF9D80"/>
</linearGradient>
<linearGradient id="paint3_linear" x1="39.626" y1="36.3653" x2="57.1805" y2="57.4128" gradientUnits="userSpaceOnUse">
<stop stop-color="#CF9D80"/>
<stop offset="1" stop-color="#CF9D80" stop-opacity="0.8"/>
</linearGradient>
</defs>
</svg>
